<svg width="889" height="553" viewBox="0 0 889 553" fill="none" xmlns="http://www.w3.org/2000/svg">
<g id="scene">
<g clip-path="url(#clip0)">
<path id="shadow" d="M444.003 467C689.219 467 888.006 458.941 888.006 449C888.006 439.059 689.219 431 444.003 431C198.787 431 0 439.059 0 449C0 458.941 198.787 467 444.003 467Z" fill="#E6E6E6"/>
<g id="rightTable">
<path id="Vector" d="M797.007 108H615.007V440H797.007V108Z" fill="#E6E6E6"/>
<path id="Vector_2" d="M632.007 423H780.007V125H632.007V423Z" fill="white"/>
<g id="rightTopBox">
<path id="Vector_3" d="M732.097 188.915H688.874V192.928H732.097V188.915Z" fill="#E6E6E6"/>
<path id="Vector_4" d="M764.208 202.8H688.874V206.814H764.208V202.8Z" fill="#E6E6E6"/>
<path id="Vector_5" d="M764.135 216.685H688.874V220.699H764.135V216.685Z" fill="#E6E6E6"/>
<path id="Vector_6" d="M679.917 188.974H647.805V221.085H679.917V188.974Z" fill="#E6E6E6"/>
</g>
<g id="rightMiddleBox">
<path id="Vector_7" d="M732.097 257.915H688.874V261.928H732.097V257.915Z" fill="#E6E6E6"/>
<path id="Vector_8" d="M764.208 271.8H688.874V275.814H764.208V271.8Z" fill="#E6E6E6"/>
<path id="Vector_9" d="M764.135 285.685H688.874V289.699H764.135V285.685Z" fill="#E6E6E6"/>
<path id="Vector_10" d="M679.917 257.974H647.805V290.085H679.917V257.974Z" fill="#E6E6E6"/>
</g>
<g id="rightBottomBox">
<path id="Vector_11" d="M732.097 326.915H688.874V330.928H732.097V326.915Z" fill="#E6E6E6"/>
<path id="Vector_12" d="M764.208 340.8H688.874V344.814H764.208V340.8Z" fill="#E6E6E6"/>
<path id="Vector_13" d="M764.135 354.685H688.874V358.699H764.135V354.685Z" fill="#E6E6E6"/>
<path id="Vector_14" d="M679.917 326.974H647.805V359.085H679.917V326.974Z" fill="#E6E6E6"/>
</g>
</g>
<g id="leftTable">
<path id="Vector_15" d="M289.007 108H107.007V440H289.007V108Z" fill="#E6E6E6"/>
<path id="Vector_16" d="M124.007 423H272.007V125H124.007V423Z" fill="white"/>
<g id="leftTopBox">
<path id="Vector_17" d="M224.097 188.915H180.874V192.928H224.097V188.915Z" fill="#E6E6E6"/>
<path id="Vector_18" d="M256.208 202.8H180.874V206.814H256.208V202.8Z" fill="#E6E6E6"/>
<path id="Vector_19" d="M256.135 216.685H180.874V220.699H256.135V216.685Z" fill="#E6E6E6"/>
<path id="Vector_20" d="M171.916 188.974H139.805V221.085H171.916V188.974Z" fill="#E6E6E6"/>
</g>
<g id="leftMiddleBox">
<path id="Vector_21" d="M224.097 257.915H180.874V261.928H224.097V257.915Z" fill="#E6E6E6"/>
<path id="Vector_22" d="M256.208 271.8H180.874V275.814H256.208V271.8Z" fill="#E6E6E6"/>
<path id="Vector_23" d="M256.135 285.685H180.874V289.699H256.135V285.685Z" fill="#E6E6E6"/>
<path id="Vector_24" d="M171.916 257.974H139.805V290.085H171.916V257.974Z" fill="#E6E6E6"/>
</g>
<g id="leftBottomBox">
<path id="Vector_25" d="M224.097 326.915H180.874V330.928H224.097V326.915Z" fill="#E6E6E6"/>
<path id="Vector_26" d="M256.208 340.8H180.874V344.814H256.208V340.8Z" fill="#E6E6E6"/>
<path id="Vector_27" d="M256.135 354.685H180.874V358.699H256.135V354.685Z" fill="#E6E6E6"/>
<path id="Vector_28" d="M171.916 326.974H139.805V359.085H171.916V326.974Z" fill="#E6E6E6"/>
</g>
</g>
<g id="mainTable">
<path id="Vector_29" d="M575.898 0H328.115V452H575.898V0Z" fill="#3F3D56"/>
<path id="Vector_30" d="M338.823 440.5H565.191V11.5H338.823V440.5Z" fill="white"/>
</g>
<g id="mainBoxes">
<g id="mainTopBox">
<path id="Vector_31" d="M487.527 110.161H428.681V115.626H487.527V110.161Z" fill="#2eae83"/>
<path id="Vector_32" d="M531.245 129.065H428.681V134.53H531.245V129.065Z" fill="#E6E6E6"/>
<path id="Vector_33" d="M531.145 147.969H428.681V153.434H531.145V147.969Z" fill="#E6E6E6"/>
<path id="Vector_34" d="M416.486 110.242H372.768V153.96H416.486V110.242Z" fill="#2eae83"/>
</g>
<g id="mainMiddleBox">
<path id="Vector_35" d="M487.527 204.101H428.681V209.565H487.527V204.101Z" fill="#2eae83"/>
<path id="Vector_36" d="M531.245 223.005H428.681V228.469H531.245V223.005Z" fill="#E6E6E6"/>
<path id="Vector_37" d="M531.145 241.909H428.681V247.374H531.145V241.909Z" fill="#E6E6E6"/>
<path id="Vector_38" d="M416.486 204.182H372.768V247.899H416.486V204.182Z" fill="#2eae83"/>
</g>
<g id="mainBottomBox">
<path id="Vector_39" d="M487.527 298.04H428.681V303.505H487.527V298.04Z" fill="#2eae83"/>
<path id="Vector_40" d="M531.245 316.944H428.681V322.409H531.245V316.944Z" fill="#E6E6E6"/>
<path id="Vector_41" d="M531.145 335.849H428.681V341.313H531.145V335.849Z" fill="#E6E6E6"/>
<path id="Vector_42" d="M416.486 298.121H372.768V341.839H416.486V298.121Z" fill="#2eae83"/>
</g>
</g>
<g id="character">
<path id="Vector_43" d="M361.507 320.5L358.507 333.5C358.507 333.5 359.507 363.5 351.507 360.5C343.507 357.5 345.507 331.5 345.507 331.5L352.507 318.5L361.507 320.5Z" fill="#FFB8B8"/>
<path id="Vector_44" d="M317.007 178C328.053 178 337.007 169.046 337.007 158C337.007 146.954 328.053 138 317.007 138C305.961 138 297.007 146.954 297.007 158C297.007 169.046 305.961 178 317.007 178Z" fill="#FFB8B8"/>
<path id="Vector_45" d="M301.507 163.5L299.507 192.5L324.507 195.5C324.507 195.5 324.507 171.5 326.507 168.5C328.507 165.5 301.507 163.5 301.507 163.5Z" fill="#FFB8B8"/>
<path id="Vector_46" d="M357.007 201L324.624 187.287C324.624 187.287 309.155 175.35 300.081 184.175L296.007 190C296.007 190 260.007 204 260.007 215L274.007 270C274.007 270 266.007 301 278.007 303L343.007 309C343.007 309 352.007 298 344.007 284L347.007 251L357.007 201Z" fill="#575A89"/>
<path id="Vector_47" d="M335.007 202L357.007 201C357.007 201 364.007 203 369.007 222C374.007 241 375.007 272 375.007 272L363.007 328L348.007 326L354.007 272L344.007 236L335.007 202Z" fill="#575A89"/>
<path id="Vector_48" d="M272.007 208L261.16 211.378C261.16 211.378 252.007 225 252.007 232C252.007 239 248.007 292 248.007 292L274.007 335L282.007 314L266.007 287L279.007 254L272.007 208Z" fill="#575A89"/>
<path id="Vector_49" d="M346.007 307L274.11 300.674C274.11 300.674 267.007 346 268.007 364C269.007 382 270.007 410 270.007 410L262.007 532L293.007 528L297.007 427L310.007 372L325.007 442L335.007 532L362.007 529L353.007 420C353.007 420 361.007 322 346.007 307Z" fill="#2F2E41"/>
<path id="Vector_50" d="M356.007 524L365.007 527C365.007 527 384.007 522 379.007 535C374.007 548 360.007 546 360.007 546C360.007 546 343.007 559 336.007 549L340.007 528L356.007 524Z" fill="#2F2E41"/>
<path id="Vector_51" d="M283.007 524L292.007 527C292.007 527 311.007 522 306.007 535C301.007 548 287.007 546 287.007 546C287.007 546 270.007 559 263.007 549L267.007 528L283.007 524Z" fill="#2F2E41"/>
<path id="Vector_52" d="M301.507 175.5C301.507 175.5 280.507 160.5 291.507 142.5C299.138 130.013 314.951 131.001 323.921 132.778C326.337 133.224 328.609 134.251 330.541 135.77C332.472 137.29 334.005 139.256 335.007 141.5C336.507 145 336.507 148.5 330.507 148.5C318.507 148.5 324.507 157.5 324.507 157.5C324.507 157.5 316.507 159.5 318.507 166.5C320.507 173.5 301.507 175.5 301.507 175.5Z" fill="#2F2E41"/>
</g>
</g>
</g>
<defs>
<clipPath id="clip0">
<rect width="888.006" height="552.781" fill="white"/>
</clipPath>
</defs>
</svg>
